<?xml version="1.0" standalone="no"?>
<!DOCTYPE svg PUBLIC "-//W3C//DTD SVG 20010904//EN"
 "http://www.w3.org/TR/2001/REC-SVG-20010904/DTD/svg10.dtd">
<svg version="1.0" xmlns="http://www.w3.org/2000/svg"
 width="261.000000pt" height="261.000000pt" viewBox="0 0 261.000000 261.000000"
 preserveAspectRatio="xMidYMid meet">
<metadata>
Created by potrace 1.14, written by Peter Selinger 2001-2017
</metadata>
<g transform="translate(0.000000,261.000000) scale(0.100000,-0.100000)"
fill="#000000" stroke="none">
<path d="M910 1933 c1 -433 7 -509 53 -600 53 -103 120 -155 237 -183 l65 -16
3 -382 2 -382 -130 0 -130 0 0 -40 0 -40 295 0 295 0 0 40 0 40 -130 0 -130 0
0 383 0 383 61 12 c118 22 215 105 259 220 33 85 40 193 40 583 l0 379 -40 0
-40 0 0 -392 c0 -299 -4 -409 -14 -459 -26 -122 -75 -192 -163 -235 -47 -23
-70 -28 -138 -28 -71 -1 -89 3 -140 29 -73 37 -116 92 -147 183 -21 64 -22 84
-26 485 l-3 417 -40 0 -39 0 0 -397z"/>
<path d="M1083 1807 c4 -338 7 -358 60 -423 40 -48 81 -64 165 -64 89 0 147
34 183 106 23 47 24 60 27 280 l3 231 -128 53 c-70 28 -170 69 -221 91 l-94
38 5 -312z"/>
</g>
</svg>
